0
SECTION
2
HEADER
9
$INSUNITS
70
4
9
$ACADVER
1
AC1014
9
$HANDSEED
5
FFFF
0
ENDSEC
0
SECTION
2
TABLES
0
TABLE
2
VPORT
5
8
100
AcDbSymbolTable
0
ENDTAB
0
TABLE
2
LTYPE
5
5
100
AcDbSymbolTable
0
LTYPE
5
14
100
AcDbSymbolTableRecord
100
AcDbLinetypeTableRecord
2
BYBLOCK
70
0
0
LTYPE
5
15
100
AcDbSymbolTableRecord
100
AcDbLinetypeTableRecord
2
BYLAYER
70
0
0
ENDTAB
0
TABLE
2
LAYER
5
2
100
AcDbSymbolTable
70
2
0
LAYER
5
50
100
AcDbSymbolTableRecord
100
AcDbLayerTableRecord
2
0
70
0
6
CONTINUOUS
0
ENDTAB
0
TABLE
2
STYLE
5
3
100
AcDbSymbolTable
70
1
0
STYLE
5
11
100
AcDbSymbolTableRecord
100
AcDbTextStyleTableRecord
2
STANDARD
70
0
0
ENDTAB
0
TABLE
2
VIEW
5
6
100
AcDbSymbolTable
70
0
0
ENDTAB
0
TABLE
2
UCS
5
7
100
AcDbSymbolTable
70
0
0
ENDTAB
0
TABLE
2
APPID
5
9
100
AcDbSymbolTable
70
2
0
APPID
5
12
100
AcDbSymbolTableRecord
100
AcDbRegAppTableRecord
2
ACAD
70
0
0
ENDTAB
0
TABLE
2
DIMSTYLE
5
A
100
AcDbSymbolTable
70
1
0
ENDTAB
0
TABLE
2
BLOCK_RECORD
5
1
100
AcDbSymbolTable
70
1
0
BLOCK_RECORD
5
1F
100
AcDbSymbolTableRecord
100
AcDbBlockTableRecord
2
*MODEL_SPACE
0
BLOCK_RECORD
5
1B
100
AcDbSymbolTableRecord
100
AcDbBlockTableRecord
2
*PAPER_SPACE
0
ENDTAB
0
ENDSEC
0
SECTION
2
BLOCKS
0
BLOCK
5
20
100
AcDbEntity
100
AcDbBlockBegin
2
*MODEL_SPACE
0
ENDBLK
5
21
100
AcDbEntity
100
AcDbBlockEnd
0
BLOCK
5
1C
100
AcDbEntity
100
AcDbBlockBegin
2
*PAPER_SPACE
0
ENDBLK
5
1D
100
AcDbEntity
100
AcDbBlockEnd
0
ENDSEC
0
SECTION
2
ENTITIES
0
LWPOLYLINE
5
100
100
AcDbEntity
8
0
100
AcDbPolyline
90
8
70
1
43
0.0
10
16.524999999999999
20
-10.168749999999999
10
16.524999999999999
20
-23.168749999999999
42
-0.41421356237309503
10
16.024999999999999
20
-23.668749999999999
10
3.0249999999999999
20
-23.668749999999999
42
-0.41421356237309503
10
2.5249999999999999
20
-23.168749999999999
10
2.5249999999999995
20
-10.168749999999999
42
-0.41421356237309503
10
3.0249999999999999
20
-9.6687499999999993
10
16.024999999999999
20
-9.6687500000000011
42
-0.41421356237309503
0
LWPOLYLINE
5
101
100
AcDbEntity
8
0
100
AcDbPolyline
90
8
70
1
43
0.0
10
35.575000000000003
20
-7.7875000000000005
10
35.575000000000003
20
-20.787500000000001
42
-0.41421356237309503
10
35.075000000000003
20
-21.287500000000001
10
22.074999999999999
20
-21.287500000000001
42
-0.41421356237309503
10
21.575000000000003
20
-20.787500000000001
10
21.574999999999996
20
-7.7875000000000005
42
-0.41421356237309503
10
22.074999999999999
20
-7.2874999999999996
10
35.075000000000003
20
-7.2874999999999979
42
-0.41421356237309503
0
LWPOLYLINE
5
102
100
AcDbEntity
8
0
100
AcDbPolyline
90
8
70
1
43
0.0
10
41.125
20
-2.5249999999999999
10
54.125000000000007
20
-2.5250000000000017
42
-0.41421356237309503
10
54.625
20
-3.0249999999999999
10
54.625
20
-16.024999999999999
42
-0.41421356237309503
10
54.125000000000007
20
-16.524999999999999
10
41.125
20
-16.524999999999999
42
-0.41421356237309503
10
40.625
20
-16.024999999999999
10
40.625
20
-3.0249999999999999
42
-0.41421356237309503
0
LWPOLYLINE
5
103
100
AcDbEntity
8
0
100
AcDbPolyline
90
8
70
1
43
0.0
10
73.674999999999997
20
-5.40625
10
73.674999999999997
20
-18.40625
42
-0.41421356237309503
10
73.174999999999997
20
-18.90625
10
60.174999999999997
20
-18.90625
42
-0.41421356237309503
10
59.675000000000004
20
-18.40625
10
59.675000000000004
20
-5.40625
42
-0.41421356237309503
10
60.174999999999997
20
-4.90625
10
73.174999999999997
20
-4.9062500000000018
42
-0.41421356237309503
0
LWPOLYLINE
5
104
100
AcDbEntity
8
0
100
AcDbPolyline
90
8
70
1
43
0.0
10
92.724999999999994
20
-5.40625
10
92.725000000000009
20
-18.40625
42
-0.41421356237309503
10
92.224999999999994
20
-18.90625
10
79.224999999999994
20
-18.90625
42
-0.41421356237309503
10
78.724999999999994
20
-18.40625
10
78.724999999999994
20
-5.40625
42
-0.41421356237309503
10
79.224999999999994
20
-4.90625
10
92.224999999999994
20
-4.9062500000000107
42
-0.41421356237309503
0
LWPOLYLINE
5
105
100
AcDbEntity
8
0
100
AcDbPolyline
90
8
70
1
43
0.0
10
111.77500000000002
20
-5.40625
10
111.77500000000002
20
-18.40625
42
-0.41421356237309503
10
111.27500000000001
20
-18.90625
10
98.275000000000006
20
-18.906249999999993
42
-0.41421356237309503
10
97.77500000000002
20
-18.40625
10
97.775000000000006
20
-5.40625
42
-0.41421356237309503
10
98.275000000000006
20
-4.90625
10
111.27500000000001
20
-4.9062499999999929
42
-0.41421356237309503
0
LWPOLYLINE
5
106
100
AcDbEntity
8
0
100
AcDbPolyline
90
8
70
1
43
0.0
10
130.82499999999999
20
-5.40625
10
130.82499999999999
20
-18.40625
42
-0.41421356237309503
10
130.32499999999999
20
-18.90625
10
117.32500000000002
20
-18.906250000000007
42
-0.41421356237309503
10
116.82500000000002
20
-18.40625
10
116.82500000000002
20
-5.40625
42
-0.41421356237309503
10
117.32500000000002
20
-4.90625
10
130.32499999999999
20
-4.9062499999999929
42
-0.41421356237309503
0
LWPOLYLINE
5
107
100
AcDbEntity
8
0
100
AcDbPolyline
90
8
70
1
43
0.0
10
136.375
20
-2.5249999999999999
10
149.375
20
-2.5249999999999928
42
-0.41421356237309503
10
149.875
20
-3.0249999999999999
10
149.875
20
-16.024999999999999
42
-0.41421356237309503
10
149.375
20
-16.524999999999999
10
136.375
20
-16.525000000000006
42
-0.41421356237309503
10
135.875
20
-16.024999999999999
10
135.875
20
-3.0249999999999999
42
-0.41421356237309503
0
LWPOLYLINE
5
108
100
AcDbEntity
8
0
100
AcDbPolyline
90
8
70
1
43
0.0
10
168.92500000000001
20
-7.7875000000000005
10
168.92500000000001
20
-20.787500000000001
42
-0.41421356237309503
10
168.42500000000001
20
-21.287500000000001
10
155.42500000000001
20
-21.287500000000009
42
-0.41421356237309503
10
154.92500000000001
20
-20.787500000000001
10
154.92500000000001
20
-7.7875000000000005
42
-0.41421356237309503
10
155.42500000000001
20
-7.2874999999999996
10
168.42500000000001
20
-7.2874999999999934
42
-0.41421356237309503
0
LWPOLYLINE
5
109
100
AcDbEntity
8
0
100
AcDbPolyline
90
8
70
1
43
0.0
10
187.97499999999999
20
-10.168749999999999
10
187.97499999999999
20
-23.168749999999999
42
-0.41421356237309503
10
187.47499999999999
20
-23.668749999999999
10
174.47500000000002
20
-23.668750000000006
42
-0.41421356237309503
10
173.97500000000002
20
-23.168749999999999
10
173.97500000000002
20
-10.168749999999999
42
-0.41421356237309503
10
174.47500000000002
20
-9.6687499999999993
10
187.47499999999999
20
-9.6687499999999922
42
-0.41421356237309503
0
LWPOLYLINE
5
110
100
AcDbEntity
8
0
100
AcDbPolyline
90
8
70
1
43
0.0
10
41.125
20
-21.575000000000003
10
54.125000000000007
20
-21.575000000000003
42
-0.41421356237309503
10
54.625
20
-22.074999999999999
10
54.625
20
-35.075000000000003
42
-0.41421356237309503
10
54.125000000000007
20
-35.575000000000003
10
41.125
20
-35.575000000000003
42
-0.41421356237309503
10
40.625
20
-35.075000000000003
10
40.625
20
-22.074999999999999
42
-0.41421356237309503
0
LWPOLYLINE
5
111
100
AcDbEntity
8
0
100
AcDbPolyline
90
8
70
1
43
0.0
10
136.375
20
-21.575000000000003
10
149.375
20
-21.574999999999992
42
-0.41421356237309503
10
149.875
20
-22.074999999999999
10
149.875
20
-35.075000000000003
42
-0.41421356237309503
10
149.375
20
-35.575000000000003
10
136.375
20
-35.57500000000001
42
-0.41421356237309503
10
135.875
20
-35.075000000000003
10
135.87500000000003
20
-22.074999999999999
42
-0.41421356237309503
0
LWPOLYLINE
5
112
100
AcDbEntity
8
0
100
AcDbPolyline
90
8
70
1
43
0.0
10
60.174999999999997
20
-26.337499999999999
10
73.174999999999997
20
-26.337499999999999
42
-0.41421356237309503
10
73.674999999999997
20
-26.837499999999999
10
73.674999999999997
20
-39.837499999999999
42
-0.41421356237309503
10
73.174999999999997
20
-40.337500000000006
10
60.174999999999997
20
-40.337499999999991
42
-0.41421356237309503
10
59.675000000000004
20
-39.837499999999999
10
59.675000000000004
20
-26.837499999999999
42
-0.41421356237309503
0
LWPOLYLINE
5
113
100
AcDbEntity
8
0
100
AcDbPolyline
90
8
70
1
43
0.0
10
79.224999999999994
20
-26.337499999999999
10
92.224999999999994
20
-26.337500000000009
42
-0.41421356237309503
10
92.724999999999994
20
-26.837499999999999
10
92.725000000000009
20
-39.837499999999999
42
-0.41421356237309503
10
92.224999999999994
20
-40.337500000000006
10
79.224999999999994
20
-40.337499999999991
42
-0.41421356237309503
10
78.724999999999994
20
-39.837499999999999
10
78.724999999999994
20
-26.837499999999999
42
-0.41421356237309503
0
LWPOLYLINE
5
114
100
AcDbEntity
8
0
100
AcDbPolyline
90
8
70
1
43
0.0
10
98.275000000000006
20
-26.337499999999999
10
111.27500000000001
20
-26.337499999999991
42
-0.41421356237309503
10
111.77500000000002
20
-26.837499999999999
10
111.77500000000002
20
-39.837499999999999
42
-0.41421356237309503
10
111.27500000000001
20
-40.337500000000006
10
98.275000000000006
20
-40.337499999999991
42
-0.41421356237309503
10
97.77500000000002
20
-39.837499999999999
10
97.775000000000006
20
-26.837499999999999
42
-0.41421356237309503
0
LWPOLYLINE
5
115
100
AcDbEntity
8
0
100
AcDbPolyline
90
8
70
1
43
0.0
10
117.32500000000002
20
-26.337499999999999
10
130.32499999999999
20
-26.337499999999991
42
-0.41421356237309503
10
130.82499999999999
20
-26.837499999999999
10
130.82499999999999
20
-39.837499999999999
42
-0.41421356237309503
10
130.32499999999999
20
-40.337500000000006
10
117.32500000000002
20
-40.337500000000013
42
-0.41421356237309503
10
116.82500000000002
20
-39.837499999999999
10
116.82500000000002
20
-26.837499999999999
42
-0.41421356237309503
0
LWPOLYLINE
5
116
100
AcDbEntity
8
0
100
AcDbPolyline
90
8
70
1
43
0.0
10
22.074999999999999
20
-31.100000000000001
10
35.075000000000003
20
-31.099999999999998
42
-0.41421356237309503
10
35.575000000000003
20
-31.600000000000001
10
35.57500000000001
20
-44.600000000000001
42
-0.41421356237309503
10
35.075000000000003
20
-45.100000000000009
10
22.074999999999999
20
-45.099999999999994
42
-0.41421356237309503
10
21.575000000000003
20
-44.600000000000001
10
21.575000000000003
20
-31.600000000000001
42
-0.41421356237309503
0
LWPOLYLINE
5
117
100
AcDbEntity
8
0
100
AcDbPolyline
90
8
70
1
43
0.0
10
155.42500000000001
20
-31.100000000000001
10
168.42500000000001
20
-31.099999999999994
42
-0.41421356237309503
10
168.92500000000001
20
-31.600000000000001
10
168.92500000000001
20
-44.600000000000001
42
-0.41421356237309503
10
168.42500000000001
20
-45.100000000000009
10
155.42500000000001
20
-45.100000000000009
42
-0.41421356237309503
10
154.92500000000001
20
-44.600000000000001
10
154.92500000000004
20
-31.600000000000001
42
-0.41421356237309503
0
LWPOLYLINE
5
118
100
AcDbEntity
8
0
100
AcDbPolyline
90
8
70
1
43
0.0
10
3.0249999999999999
20
-35.862499999999997
10
16.024999999999999
20
-35.862500000000004
42
-0.41421356237309503
10
16.524999999999999
20
-36.362499999999997
10
16.524999999999999
20
-49.362500000000004
42
-0.41421356237309503
10
16.024999999999999
20
-49.862499999999997
10
3.0249999999999999
20
-49.862499999999997
42
-0.41421356237309503
10
2.5249999999999999
20
-49.362500000000004
10
2.5249999999999972
20
-36.362499999999997
42
-0.41421356237309503
0
LWPOLYLINE
5
119
100
AcDbEntity
8
0
100
AcDbPolyline
90
8
70
1
43
0.0
10
174.47500000000002
20
-35.862499999999997
10
187.47499999999999
20
-35.86249999999999
42
-0.41421356237309503
10
187.97499999999999
20
-36.362499999999997
10
187.97499999999999
20
-49.362500000000004
42
-0.41421356237309503
10
187.47499999999999
20
-49.862499999999997
10
174.47500000000002
20
-49.862500000000011
42
-0.41421356237309503
10
173.97500000000002
20
-49.362500000000004
10
173.97500000000002
20
-36.362499999999997
42
-0.41421356237309503
0
LWPOLYLINE
5
120
100
AcDbEntity
8
0
100
AcDbPolyline
90
8
70
1
43
0.0
10
54.625
20
-43.506250000000001
10
54.625
20
-56.506250000000009
42
-0.41421356237309503
10
54.125000000000007
20
-57.006250000000009
10
41.125
20
-57.006250000000009
42
-0.41421356237309503
10
40.625
20
-56.506250000000009
10
40.625
20
-43.506250000000001
42
-0.41421356237309503
10
41.125
20
-43.006250000000001
10
54.125000000000007
20
-43.006250000000001
42
-0.41421356237309503
0
LWPOLYLINE
5
121
100
AcDbEntity
8
0
100
AcDbPolyline
90
8
70
1
43
0.0
10
149.875
20
-43.506250000000001
10
149.875
20
-56.506250000000009
42
-0.41421356237309503
10
149.375
20
-57.006250000000009
10
136.375
20
-57.006250000000016
42
-0.41421356237309503
10
135.875
20
-56.506250000000009
10
135.87500000000003
20
-43.506250000000001
42
-0.41421356237309503
10
136.375
20
-43.006250000000001
10
149.375
20
-43.006249999999994
42
-0.41421356237309503
0
LWPOLYLINE
5
122
100
AcDbEntity
8
0
100
AcDbPolyline
90
8
70
1
43
0.0
10
60.174999999999997
20
-45.387500000000003
10
73.174999999999997
20
-45.387500000000003
42
-0.41421356237309503
10
73.674999999999997
20
-45.887500000000003
10
73.674999999999997
20
-58.88750000000001
42
-0.41421356237309503
10
73.174999999999997
20
-59.387500000000003
10
60.174999999999997
20
-59.387500000000003
42
-0.41421356237309503
10
59.675000000000004
20
-58.88750000000001
10
59.675000000000004
20
-45.887500000000003
42
-0.41421356237309503
0
LWPOLYLINE
5
123
100
AcDbEntity
8
0
100
AcDbPolyline
90
8
70
1
43
0.0
10
79.224999999999994
20
-45.387500000000003
10
92.224999999999994
20
-45.38750000000001
42
-0.41421356237309503
10
92.724999999999994
20
-45.887500000000003
10
92.725000000000009
20
-58.88750000000001
42
-0.41421356237309503
10
92.224999999999994
20
-59.387500000000003
10
79.224999999999994
20
-59.387500000000003
42
-0.41421356237309503
10
78.724999999999994
20
-58.88750000000001
10
78.724999999999994
20
-45.887500000000003
42
-0.41421356237309503
0
LWPOLYLINE
5
124
100
AcDbEntity
8
0
100
AcDbPolyline
90
8
70
1
43
0.0
10
98.275000000000006
20
-45.387500000000003
10
111.27500000000001
20
-45.387499999999996
42
-0.41421356237309503
10
111.77500000000002
20
-45.887500000000003
10
111.77500000000002
20
-58.88750000000001
42
-0.41421356237309503
10
111.27500000000001
20
-59.387500000000003
10
98.275000000000006
20
-59.387499999999996
42
-0.41421356237309503
10
97.77500000000002
20
-58.88750000000001
10
97.775000000000006
20
-45.887500000000003
42
-0.41421356237309503
0
LWPOLYLINE
5
125
100
AcDbEntity
8
0
100
AcDbPolyline
90
8
70
1
43
0.0
10
117.32500000000002
20
-45.387500000000003
10
130.32499999999999
20
-45.387499999999996
42
-0.41421356237309503
10
130.82499999999999
20
-45.887500000000003
10
130.82499999999999
20
-58.88750000000001
42
-0.41421356237309503
10
130.32499999999999
20
-59.387500000000003
10
117.32500000000002
20
-59.387500000000017
42
-0.41421356237309503
10
116.82500000000002
20
-58.88750000000001
10
116.82500000000002
20
-45.887500000000003
42
-0.41421356237309503
0
LWPOLYLINE
5
126
100
AcDbEntity
8
0
100
AcDbPolyline
90
8
70
1
43
0.0
10
35.575000000000003
20
-57.79375000000001
10
35.575000000000003
20
-70.793750000000003
42
-0.41421356237309503
10
35.075000000000003
20
-71.293750000000003
10
22.074999999999999
20
-71.293750000000003
42
-0.41421356237309503
10
21.575000000000003
20
-70.793750000000003
10
21.575000000000003
20
-57.79375000000001
42
-0.41421356237309503
10
22.074999999999999
20
-57.29375000000001
10
35.075000000000003
20
-57.29375000000001
42
-0.41421356237309503
0
LWPOLYLINE
5
127
100
AcDbEntity
8
0
100
AcDbPolyline
90
8
70
1
43
0.0
10
168.92500000000001
20
-57.79375000000001
10
168.92500000000001
20
-70.793750000000003
42
-0.41421356237309503
10
168.42500000000001
20
-71.293750000000003
10
155.42500000000001
20
-71.293750000000017
42
-0.41421356237309503
10
154.92500000000001
20
-70.793750000000003
10
154.92500000000004
20
-57.79375000000001
42
-0.41421356237309503
10
155.42500000000001
20
-57.29375000000001
10
168.42500000000001
20
-57.293750000000003
42
-0.41421356237309503
0
LWPOLYLINE
5
128
100
AcDbEntity
8
0
100
AcDbPolyline
90
8
70
1
43
0.0
10
16.524999999999999
20
-60.174999999999997
10
16.524999999999999
20
-73.174999999999997
42
-0.41421356237309503
10
16.024999999999999
20
-73.674999999999997
10
3.0249999999999999
20
-73.674999999999997
42
-0.41421356237309503
10
2.5249999999999999
20
-73.174999999999997
10
2.5250000000000017
20
-60.174999999999997
42
-0.41421356237309503
10
3.0249999999999999
20
-59.675000000000004
10
16.024999999999999
20
-59.675000000000004
42
-0.41421356237309503
0
LWPOLYLINE
5
129
100
AcDbEntity
8
0
100
AcDbPolyline
90
8
70
1
43
0.0
10
187.97499999999999
20
-60.174999999999997
10
187.97499999999999
20
-73.174999999999997
42
-0.41421356237309503
10
187.47499999999999
20
-73.674999999999997
10
174.47500000000002
20
-73.675000000000011
42
-0.41421356237309503
10
173.97500000000002
20
-73.174999999999997
10
173.97500000000002
20
-60.174999999999997
42
-0.41421356237309503
10
174.47500000000002
20
-59.675000000000004
10
187.47499999999999
20
-59.674999999999997
42
-0.41421356237309503
0
LWPOLYLINE
5
130
100
AcDbEntity
8
0
100
AcDbPolyline
90
8
70
1
43
0.0
10
41.125
20
-64.4375
10
54.125000000000007
20
-64.4375
42
-0.41421356237309503
10
54.625
20
-64.9375
10
54.625
20
-77.9375
42
-0.41421356237309503
10
54.125000000000007
20
-78.4375
10
41.125
20
-78.4375
42
-0.41421356237309503
10
40.625
20
-77.9375
10
40.625
20
-64.9375
42
-0.41421356237309503
0
LWPOLYLINE
5
131
100
AcDbEntity
8
0
100
AcDbPolyline
90
8
70
1
43
0.0
10
69.700000000000003
20
-64.4375
10
82.700000000000017
20
-64.437500000000014
42
-0.41421356237309503
10
83.200000000000003
20
-64.9375
10
83.200000000000003
20
-77.9375
42
-0.41421356237309503
10
82.700000000000017
20
-78.4375
10
69.700000000000003
20
-78.4375
42
-0.41421356237309503
10
69.200000000000003
20
-77.9375
10
69.200000000000003
20
-64.9375
42
-0.41421356237309503
0
LWPOLYLINE
5
132
100
AcDbEntity
8
0
100
AcDbPolyline
90
8
70
1
43
0.0
10
61.262000000000008
20
-65.4375
10
67.262
20
-65.4375
42
-0.41421356237309503
10
67.762
20
-65.9375
10
67.762000000000015
20
-79.9375
42
-0.41421356237309503
10
67.262
20
-80.437500000000014
10
61.262000000000008
20
-80.437500000000014
42
-0.41421356237309503
10
60.762
20
-79.9375
10
60.762000000000008
20
-65.9375
42
-0.41421356237309503
0
LWPOLYLINE
5
133
100
AcDbEntity
8
0
100
AcDbPolyline
90
8
70
1
43
0.0
10
85.138000000000005
20
-65.4375
10
91.137999999999991
20
-65.4375
42
-0.41421356237309503
10
91.638000000000005
20
-65.9375
10
91.638000000000005
20
-79.9375
42
-0.41421356237309503
10
91.137999999999991
20
-80.437500000000014
10
85.138000000000005
20
-80.437500000000014
42
-0.41421356237309503
10
84.637999999999991
20
-79.9375
10
84.637999999999991
20
-65.9375
42
-0.41421356237309503
0
LWPOLYLINE
5
134
100
AcDbEntity
8
0
100
AcDbPolyline
90
8
70
1
43
0.0
10
107.80000000000001
20
-64.4375
10
120.8
20
-64.4375
42
-0.41421356237309503
10
121.30000000000001
20
-64.9375
10
121.29999999999998
20
-77.9375
42
-0.41421356237309503
10
120.8
20
-78.4375
10
107.80000000000001
20
-78.437500000000014
42
-0.41421356237309503
10
107.30000000000001
20
-77.9375
10
107.30000000000001
20
-64.9375
42
-0.41421356237309503
0
LWPOLYLINE
5
135
100
AcDbEntity
8
0
100
AcDbPolyline
90
8
70
1
43
0.0
10
99.362000000000009
20
-65.4375
10
105.36200000000001
20
-65.4375
42
-0.41421356237309503
10
105.86200000000002
20
-65.9375
10
105.86200000000002
20
-79.9375
42
-0.41421356237309503
10
105.36200000000001
20
-80.437500000000014
10
99.362000000000009
20
-80.4375
42
-0.41421356237309503
10
98.862000000000023
20
-79.9375
10
98.862000000000023
20
-65.9375
42
-0.41421356237309503
0
LWPOLYLINE
5
136
100
AcDbEntity
8
0
100
AcDbPolyline
90
8
70
1
43
0.0
10
123.238
20
-65.4375
10
129.238
20
-65.4375
42
-0.41421356237309503
10
129.738
20
-65.9375
10
129.738
20
-79.9375
42
-0.41421356237309503
10
129.238
20
-80.437500000000014
10
123.238
20
-80.4375
42
-0.41421356237309503
10
122.73800000000001
20
-79.9375
10
122.73800000000001
20
-65.9375
42
-0.41421356237309503
0
LWPOLYLINE
5
137
100
AcDbEntity
8
0
100
AcDbPolyline
90
8
70
1
43
0.0
10
136.375
20
-64.4375
10
149.375
20
-64.4375
42
-0.41421356237309503
10
149.875
20
-64.9375
10
149.875
20
-77.9375
42
-0.41421356237309503
10
149.375
20
-78.4375
10
136.375
20
-78.437500000000014
42
-0.41421356237309503
10
135.875
20
-77.9375
10
135.87500000000003
20
-64.9375
42
-0.41421356237309503
0
LWPOLYLINE
5
138
100
AcDbEntity
8
0
100
AcDbPolyline
90
16
70
1
43
0.0
10
0
20
-80.962500000000006
10
190.5
20
-80.962500000000006
10
194.5
20
-80.962500000000006
42
0.99999999999999989
10
194.50000000000006
20
-74.96250000000002
10
190.5
20
-74.96250000000002
10
190.5
20
-6.0000000000000009
10
194.5
20
-6.0000000000000009
42
0.99999999999999989
10
194.50000000000006
20
-4.3508194350300516e-30
10
190.5
20
0
10
0
20
0
10
-4.0000000000000009
20
0
42
0.99999999999999989
10
-4
20
-6.0000000000000009
10
0
20
-5.9999999999999964
10
0
20
-74.96250000000002
10
-4.0000000000000098
20
-74.96250000000002
42
0.99999999999999989
10
-4
20
-80.962500000000006
0
CIRCLE
5
139
100
AcDbEntity
8
0
100
AcDbCircle
10
194.50000000000003
20
-77.96250000000002
30
0
40
1.2000000000000011
210
0
220
0
230
1
0
CIRCLE
5
140
100
AcDbEntity
8
0
100
AcDbCircle
10
194.50000000000003
20
-3.0000000000000004
30
0
40
1.2
210
0
220
0
230
1
0
CIRCLE
5
141
100
AcDbEntity
8
0
100
AcDbCircle
10
-4
20
-3.0000000000000004
30
0
40
1.2
210
0
220
0
230
1
0
CIRCLE
5
142
100
AcDbEntity
8
0
100
AcDbCircle
10
-4.0000000000000044
20
-77.96250000000002
30
0
40
1.2000000000000011
210
0
220
0
230
1
0
ENDSEC
0
SECTION
2
OBJECTS
0
DICTIONARY
5
C
100
AcDbDictionary
3
ACAD_GROUP
350
D
3
ACAD_MLINESTYLE
350
17
0
DICTIONARY
5
D
100
AcDbDictionary
0
DICTIONARY
5
1A
330
C
100
AcDbDictionary
0
DICTIONARY
5
17
100
AcDbDictionary
0
ENDSEC
0
EOF
